# xmcd
#
# Track frame offsets:
#	150
#	16972
#	30624
#	45638
#	62425
#	82102
#	101359
#	116522
#	134261
#	150683
#	167176
#	182940
#	201810
#
# Disc length: 3014 seconds
#
# Revision: 1
# Processed by: cddbd v1.5.2PL0 Copyright (c) Steve Scherf et al.
# Submitted via: audiograbber 1.83.01
#
DISCID=a70bc40d
DTITLE=Darryl Worley - Here And Now
DYEAR=2006
DGENRE=Country
TTITLE0=Jumpin' Off The Wagon
TTITLE1=Nothin' But A Love Thang
TTITLE2=Free
TTITLE3=The Way You Love Me
TTITLE4=Party Song
TTITLE5=Living In The Here And Now
TTITLE6=Do You Know What That Is
TTITLE7=Things I'll Never Do Again
TTITLE8=Slow Dancing With A Memory
TTITLE9=Whiskey Makes The World Go 'Round
TTITLE10=Lowdown Woman
TTITLE11=Nothin' To Lose
TTITLE12=I Just Came Back From A War
EXTD=
EXTT0=
EXTT1=
EXTT2=
EXTT3=
EXTT4=
EXTT5=
EXTT6=
EXTT7=
EXTT8=
EXTT9=
EXTT10=
EXTT11=
EXTT12=
PLAYORDER=
